<svg id="图层_1" data-name="图层 1" xmlns="http://www.w3.org/2000/svg" viewBox="0 0 60 60"><defs><style>.cls-1{fill:#d63aff;}.cls-2{fill:#fff;}.cls-3{font-size:37.7px;fill:#e832ff;font-family:SIL-Hei-Med-Jian, Hei;}</style></defs><title>pr</title><path class="cls-1" d="M3.75,3.75v52.5h52.5V3.75ZM0,0H60V60H0Z"/><path id="ai-a" class="cls-2" d="M32.83,43.12c-.35-1-.71-2-1.09-3s-.73-2-1.08-3.08H19.71c-.35,1.05-.71,2.08-1.07,3.1s-.72,2-1.07,3H12.66c1-2.77,1.9-5.33,2.77-7.68s1.73-4.58,2.57-6.68,1.67-4.1,2.49-6S22.17,19,23,17.14h4.47q1.3,2.77,2.55,5.62t2.49,6q1.26,3.15,2.59,6.68t2.79,7.68Zm-7.65-21q-.86,2-2,4.84c-.74,1.9-1.5,4-2.3,6.19h8.55c-.8-2.23-1.58-4.3-2.33-6.23S25.73,23.44,25.18,22.16Zm19.46,21H40.11V23.51h4.53Zm.49-25.35a2.59,2.59,0,0,1-.82,2,2.8,2.8,0,0,1-2,.75,2.85,2.85,0,0,1-2-.75,2.6,2.6,0,0,1-.83-2,2.65,2.65,0,0,1,.83-2.06,2.85,2.85,0,0,1,2-.75,2.8,2.8,0,0,1,2,.75A2.65,2.65,0,0,1,45.13,17.77Z"/><text class="cls-3" transform="translate(11.85 41.61)">Pr</text></svg>