<?xml version="1.0" encoding="utf-8"?>
<!-- Generator: Adobe Illustrator 22.1.0, SVG Export Plug-In . SVG Version: 6.00 Build 0)  -->
<svg version="1.1" xmlns="http://www.w3.org/2000/svg" xmlns:xlink="http://www.w3.org/1999/xlink" x="0px" y="0px"
	 viewBox="0 0 1920 1080" style="enable-background:new 0 0 1920 1080;" xml:space="preserve">
<style type="text/css">
	.st0{fill:#FF0000;}
	.st1{fill:#FF1B1B;}
	.st2{fill:#FFFFFF;}
	.st3{font-family:'TpldKhangXiDictTrial-B5pc-H';}
	.st4{font-size:90.0696px;}
	.st5{letter-spacing:8.3;}
</style>
<g id="图层_1">
</g>
<g id="图层_2">
	<g>
		<rect x="110.8" y="362.1" class="st0" width="134.2" height="134.2"/>
		<g>
			<g>
				<g>
					<g>
						<path class="st1" d="M247.5,495.7c0,0.8,0.4,0.5,0.5,0.6C247.8,495,247.4,495.7,247.5,495.7z"/>
						<polygon class="st1" points="246.5,482.6 246.7,482.8 246.3,480.9 						"/>
						<path class="st1" d="M246.5,470.4c-0.7,1.2,0.1,4.4-0.1,6.6l-0.2,0.4l0.6,1C246.7,475.7,246.3,472.2,246.5,470.4z"/>
						<path class="st1" d="M248.1,463.8c-0.3,0.4-0.2-1.4-0.1,1.5c0-0.1,0-0.2,0.1-0.3C248.1,464.8,248.1,464.5,248.1,463.8z"/>
						<path class="st1" d="M248.1,465.1C248.1,466.4,248.3,464.2,248.1,465.1L248.1,465.1z"/>
						<path class="st1" d="M247.9,459.1l0.2,1.7c0.2-0.4,0.2-1.9,0.3-1.3C248.3,457.8,248.2,458.1,247.9,459.1z"/>
						<path class="st1" d="M247.4,457.5l0.1,0.9C247.6,458.2,247.6,458,247.4,457.5z"/>
						<path class="st1" d="M247.7,460.3l-0.2-1.9c-0.1,0.2-0.3,0.3,0.1,0.9C247.4,459.1,247.6,459.5,247.7,460.3z"/>
						<path class="st1" d="M247.6,461.3c-0.2,1-0.3,2.2-0.5,0.5C247.2,465,247.7,464.6,247.6,461.3z"/>
						<path class="st1" d="M245.8,469.7l-0.2,1.3l0.2,1.1C245.7,471.6,246,469.7,245.8,469.7z"/>
						<path class="st1" d="M248.3,448.6c-0.2-0.1-0.4,0.6-0.6,0.7l0.2,1.3C248,449.9,248,448.6,248.3,448.6z"/>
						<path class="st1" d="M247.7,449.3l-0.3-1.9C247.4,449.1,247.5,449.4,247.7,449.3z"/>
						<polygon class="st1" points="246.6,457.2 247.1,460.3 246.6,456.6 						"/>
						<polygon class="st1" points="248.3,441.4 248.6,442.5 248.1,440.6 						"/>
						<path class="st1" d="M248.2,436.6c0.3,0.8,0.5-1.1,0.7-0.2c-0.1-1.3-0.3-2.4-0.5-3.4C248.5,434.1,248.5,435.2,248.2,436.6z"/>
						<path class="st1" d="M248,431.3c0.1,0.5,0.2,1.1,0.3,1.7C248.3,432.4,248.2,431.9,248,431.3z"/>
						<path class="st1" d="M247.5,444.2c0.1-0.1,0.3-0.4,0.4-1.5l-0.4,0.7C247.5,443.7,247.5,443.9,247.5,444.2z"/>
						<path class="st1" d="M247.5,443.5L247.5,443.5c0-0.8,0-1.4,0-1.6C247.5,442.1,247.5,442.5,247.5,443.5z"/>
						<path class="st1" d="M247.5,444.4c0-0.1,0-0.1,0-0.2C247.4,444.3,247.4,444.3,247.5,444.4z"/>
						<path class="st1" d="M247,452.3c-0.2-1.1-0.5-3.4-0.9-1.2C246.4,451.9,246.6,450.6,247,452.3z"/>
						<path class="st1" d="M247,445.3l-0.1,2c0.1,0,0.3-0.4,0.4,0.1L247,445.3z"/>
						<polygon class="st1" points="246.8,444.3 247,445.3 247,444.5 						"/>
						<path class="st1" d="M247.6,434.7c-0.2-0.9-0.2-1.8-0.2-2.9c-0.1,1.1-0.1,2.3-0.1,3.4C247.4,435.5,247.7,436,247.6,434.7z"/>
						<path class="st1" d="M247.5,439c0-0.1,0-0.1,0-0.2C247.5,438.9,247.5,439,247.5,439z"/>
						<path class="st1" d="M247.4,421.4c0,0.1-0.1,0.1-0.1,0.2c0,0,0,0,0.1,0L247.4,421.4z"/>
						<path class="st1" d="M247.2,435.5c-0.1,0.9,0,1.4,0.2,1.9c0-0.6-0.1-1.3-0.1-2C247.2,435.2,247.2,435.2,247.2,435.5z"/>
						<path class="st1" d="M247.8,428.4c-0.1,0.4-0.2,1-0.2,1.5C247.7,429.5,248,428.6,247.8,428.4z"/>
						<path class="st1" d="M247.6,438.5c0,0,0,0.1,0,0.1C247.7,438.4,247.7,438.4,247.6,438.5z"/>
						<path class="st1" d="M247.6,438.5c-0.1-0.4-0.2-0.8-0.3-1.1c0,0.5,0.1,1,0.1,1.4C247.5,438.7,247.6,438.6,247.6,438.5z"/>
						<path class="st1" d="M244.7,418.2c0.4,0.2,0.8,2.4,0.3,4.3c0.3,1.9,1.6,0.7,2.3-1c-0.2-0.1-0.3-0.1-0.6-2
							c-0.2,0.7-0.5,4.4-0.9,2.7c-0.2-2.6,0.1-2.1,0.3-3.4c-0.5,1.1-0.7-3.3-1.4-2.8l0.3,2.3C245,418.4,244.8,417.6,244.7,418.2z"/>
						<path class="st1" d="M247.3,425.3l0,0.8c0.1-0.9,0.2-1.6,0.5-2.8c-0.2-1.3-0.3-1.6-0.5-1.7l-0.1,4L247.3,425.3z"/>
						<path class="st1" d="M247.4,429.8c-0.4-0.6-0.6-2.6-1.1-1.4c0,2.4,0.4,1.7,0.5,3.1C246.7,427.6,247.1,432.6,247.4,429.8
							c0,0.8,0,1.5,0.1,2.1c0.1-0.7,0.1-1.4,0.2-2c0,0,0,0.1,0,0.1l0,0l0,0c-0.1,0.2-0.1,0.2-0.1,0c0,0,0-0.1,0-0.1
							C247.5,429.9,247.4,429.9,247.4,429.8c0.1-1.1,0.1-0.2,0.2,0.2c0,0,0,0,0.1,0c0,0,0,0,0,0l-0.2-3.8
							C247.3,427,247.3,428,247.4,429.8z"/>
						<path class="st1" d="M245.2,449.1c0-0.1,0.1-0.1,0.1-0.1C245.2,448.7,245.2,448.6,245.2,449.1z"/>
						<path class="st1" d="M245.5,447.5c0.1,0.3,0.2,0.5,0.2,1.4c-0.1,0.8-0.2,0-0.3,0c0.1,0.5,0.3,1.9,0.5,0.2l-0.1-0.3
							c0.1-1.5,0.7-3.5,0.7-3.3C246.1,446.1,245.8,446.5,245.5,447.5z"/>
						<path class="st1" d="M246.3,438.5l-0.2-3.2l-0.4,1.6l0.2-0.1C245.8,438.7,246.1,438.3,246.3,438.5z"/>
						<polygon class="st1" points="247.6,421 248.1,421.5 247.4,419.6 						"/>
						<polygon class="st1" points="247.6,416.9 248,417 247.7,415.9 						"/>
						<path class="st1" d="M113.2,407.8l0.1,0.9C113.3,408.3,113.2,408,113.2,407.8z"/>
						<path class="st1" d="M113.2,400.9l-0.2-0.2C113.1,401.1,113.2,401.2,113.2,400.9z"/>
						<path class="st1" d="M197.7,359.6c-1.4-0.4-2.9-0.9-2.7-0.5l0.4,0.4C196.3,359.4,197.1,359.5,197.7,359.6z"/>
						<path class="st1" d="M127.7,362.2c0.1,0,0.3,0.1,0.4,0.1c0.3-0.1,0.6-0.3,0.9-0.4C128.6,362,128.2,362.1,127.7,362.2z"/>
						<path class="st1" d="M126.8,364l-1.8-0.3C125.4,363.8,125.9,363.9,126.8,364z"/>
						<path class="st1" d="M113.6,445l0.4,1.1C114.1,444.3,113.9,445.1,113.6,445z"/>
						<path class="st1" d="M247.4,374.3c0.2-1.2,0.2-2.1,0.3-2.9C247.4,372.8,247.1,373.9,247.4,374.3z"/>
						<path class="st1" d="M108.6,405.1c0.1,0.6,0.2,0.8,0.3,0.8C108.8,405.3,108.7,405,108.6,405.1z"/>
						<path class="st1" d="M247.7,367.9c0,0.2-0.1,0.4-0.1,0.6c0.1,0.9,0.1,1.7,0.1,2.8C247.9,370.3,248,369.1,247.7,367.9z"/>
						<path class="st1" d="M194.3,493.8c0.1,0,0.2,0,0.3,0.1C194.7,493.8,194.5,493.8,194.3,493.8z"/>
						<path class="st1" d="M233.6,498.2c-0.4,0-1,0-1.6,0C232.3,498.3,232.8,498.3,233.6,498.2z"/>
						<path class="st1" d="M247.8,400.1C247.8,401,247.8,400.3,247.8,400.1L247.8,400.1z"/>
						<path class="st1" d="M246.1,404.4c0-0.2-0.1-0.3-0.2-0.4C245.9,404.2,246,404.3,246.1,404.4z"/>
						<path class="st1" d="M242.1,362.1C242.1,362.1,242,362.1,242.1,362.1C242.2,362.2,242.2,362.2,242.1,362.1z"/>
						<path class="st1" d="M247.6,401.5c0.1-0.3,0.1-0.7,0.1-1.1C247.7,400.5,247.6,400.9,247.6,401.5z"/>
						<path class="st1" d="M247.8,401.3c0,0.3,0,0.5,0,0.8C247.8,402.2,247.9,402.1,247.8,401.3z"/>
						<path class="st1" d="M247.7,398.9c0,0.5,0,1,0,1.4c0-0.2,0.1-0.2,0.1-0.2C247.8,399.9,247.8,399.5,247.7,398.9z"/>
						<path class="st1" d="M122.1,495c0.1,0,0.1,0,0.2,0C123.1,494.9,122.7,494.9,122.1,495z"/>
						<path class="st1" d="M174.7,364.1c0,0,0.1,0,0.1,0C174.8,364.1,174.7,364.1,174.7,364.1L174.7,364.1z"/>
						<path class="st1" d="M171.6,364.4c1.3-0.5,2.1-0.5,3.1-0.4l-1-1.3L171.6,364.4z"/>
						<path class="st1" d="M113.3,424.1l0.4-2.2c0.6,2.7,0.4,4.6,1,2.5c-1.4-0.3-0.1-8.6-1.5-9l0.3-1.5c0,0.4,0.1,0.5,0.1,0.9
							c0.7-2.9-1-2.1-0.8-5.8c0.1-1.3,0.3-2.2,0.5-1.3l-0.3-2.9c0-0.8,0.3-0.6,0.2,0.2l-0.1-4.4l0,0c-0.2-0.6-0.5-2-0.7-2.7
							c0.2-1.1,0.1,0.6,0.3,0.3l-0.3-2.4c0.4-1,0.7,1,0.6,2.7c1.4-2.3-0.3-2,0.5-6.9l0.2,2.3c0.8-1.5,0.5-3.2,1-5.8
							c-0.3,0.6-1.2,5.2-1.5,2.5c0.1-0.7,0.2-1.7-0.1-3.1c0.5,0,0.4-1.4,0.3-3.1l0.6,0.1c-0.2-1.9-0.5-1.7-0.8-2.8
							c0.1-2.1,0.6-2.5,1-3c0.1-3.3-0.8,2.3-0.9-1.6c0.2-2.8,0-4.7-0.4-8c0.2-1.9,0.4,0.3,0.6-0.4l-0.5-1.7c0-0.4,0.2-0.3,0.2-0.2
							c-0.2-1.4-0.6-0.4-0.8-1.9c-0.3-0.3-0.1-0.9,0.1-1.5c0.6,0.1,1.2,0.3,1.7,0.4c0.2,0,0.5,0,0.7,0c0.4,0,0.8-0.1,1.2-0.2
							c0.7,0.2-0.3,0.4-0.1,0.6c3.9-0.5,3.3-0.4,6.5-1.1l2.7,0.4c-2-0.5,0.6-1,2.8-1.5c-0.7-0.2-1.3-0.4-1.7-0.5l3.5-0.3
							c0.4,0.1,0.1,0.3-0.5,0.6c0.2-0.1,0.5-0.1,0.6-0.2c1.3,0.2,0.6,0.6-0.3,1c-0.4-0.1-0.9-0.3-1.3-0.4c-0.9,0.4-1.7,0.8-1.5,1.2
							c0.2-0.1,0.7-0.1,1.2-0.2c-0.2,0.1-0.4,0.2-0.3,0.3c0.1,0.1,0.5-0.1,1.1-0.2l0.8,0.7l0.2-0.3l4.6,0.4
							c3.3-0.7,6.2-1.8,11.5-2.1c-1.3,0.5-0.3,0.9-0.4,1.5c-1.4-0.7-4.1,0.3-6.8,0.1c1.4,0.1,1.1,0.4,0.7,0.5l4.9-0.6
							c-0.1,0.5,1,0.4,2.3,0.6c-1-1,3.6-0.7,5.6-1c0.1,0.3-0.4,0.7-2.8,0.6c2.7,0.8,3.4-1.2,6.1-0.5c-0.6,0-0.9,0-1.1,0.1
							c1.4-0.3,4.7-0.1,4,0.2l-0.6,0c3.9,0.1,11.9,0,12.5-0.8c0,0.1-0.5,1-0.8,1.2l7-2.9c-0.6,0.7,1.7,2.5-1.5,2.9
							c0.9,0.1,2.1,0.2,4.1,0c-0.6-0.1-1.6-1.1-0.7-1.1c2.4,0.8,1.7,0.4,4.6,1.1c-1-0.2,0.1-1.3,1.6-1.3c-0.2,0.2,0.1,1.1-0.4,1.2
							l3.8-1.1c-0.9,0.2-0.2,1,0.7,1.3c-0.4-0.2,3.2,0,4.2-0.1l-1.6-0.3c4.2,0.2,4.2-1.6,8.4-1.5c-0.5,0.2-1.3,1.4,0.9,1.6
							c1-0.6,4.3-2.8,8.1-3.2l0.7,0.3l2.9-0.4c-1.8,0.9-6.8,2.7-9.5,3.4c1.6,0.3,0.4,0.4,2.8,0.4c0.8,0.3-1.3,0.5-2,0.5l5.5,0.2
							c-0.2-0.7,4.2-0.7,4-1.2l-6,0.7c-0.2-0.7,3.5-1.9,7.4-1.8c1,0.3-0.7,1.2-0.7,1.4c0.5-0.2,3.7-0.4,4.1-0.3l-1.7,0.4
							c2.2,0.3,3.6-0.9,6.2-0.2c0.9,0,2.7,0.9,2.9,0.5c-1.5-0.8-1.8-3.1-0.8-3.7c0.3,0.1,4.7,0.7,5.8,1.1c1.5,0.6-2.2,1.4-1,2
							c0.1-0.2,0.9-0.4,1.2-0.5c0.9,0.2-0.4,0.6,1.7,0.5c0.3-0.7,4.2,0.1,1-0.6c2-0.2,2.1,0.1,4.5,0.1c-0.7-0.4,2.1-1.5,4.2-1.7
							c-0.1,0.2,0.3,0.4,0.5,0.5c1.1,0,2,0,2.8,0.1c-0.1,1.2-0.1,2.3-0.2,3.4c-0.1,1.1-0.1,2.3-0.1,3.7c-0.2,0.4-0.4,2.2-0.7,1.4
							c0.1,0.6,0.4,1.1,0.4,2.3c-0.6,2.3-0.1-2.7-0.8-0.9c0.4,0.1,0.5,3.1,0.8,4.8c0.6-0.5,0.1-3.9-0.1-5.6c0.8,0,1.7,2.9,2.1,7
							c0.2,3.2-0.5,1.4-0.4,1.9c-0.1,6,1.5,5.1,0.9,10.1c-0.5,2-1.1,0.1-1.5,0.5c-0.2-2.6,0.3-4,0.3-5.8l-0.3,2.2
							c-0.2-0.8-0.3-2.6-0.2-3.5c-0.5,1.7-0.1,10.2-0.5,14.8c0.2,0.8,0.4,2.2,0.6,1.6l-0.1-1.5c0.4-1.4,0.6,2.8,0.8,0.9
							c0.3,2,0.8,4.2,0.5,7l-0.6,0.5c0.2-0.1,0.4-1.8,0.2-2.6c0.3,1.2-0.8,4.3,0,5.5l0.4-1.9c0.3,2,1,4.4,0.8,6.9
							c0.6-1.1-0.1-0.6,0.6-2.3c-0.9,1.5,0-6.3-0.9-3.9c0.8-1.8,0.3-3.1,1-5.4c-0.2,0.1-0.4,0.8-0.3-1.2c-0.1-0.1-0.1-0.3-0.2-0.5
							c0-0.1,0-0.1,0-0.1c0,0,0,0.1,0,0.1c0-0.1,0-0.1,0,0c-0.1,0.5-0.2,0.9-0.3,1.1c-0.5-1-0.4-4.3-0.7-5.4
							c0.1-1.2,0.2,0.5,0.4-0.2l-0.4-1.7c0.4-0.2,0.7-3.3,1-0.4l0-2.6c0.3-1.5,0.4-3.6,0.2-4.9c0.1-1.2-0.5-3.1-0.1-2l-0.3-4.1
							l0.1,0c0.1-4-0.7-8.3,0.1-12.9c-0.1-0.7-0.1-1.4-0.2-2.2c0-0.2,0-0.5,0-0.7c0-0.3,0-0.7,0-1.1c0-0.8,0-1.6,0.1-2.5l0.4-1
							c0-0.5,0-1.1,0-1.7c-1.5,0-3.4-0.1-5-0.1c-0.4,0-0.8,0-1.2,0c-0.2,0-0.3,0-0.5,0c-0.1,0-0.2,0-0.3,0c-0.4,0-0.6,0.1-0.8,0.1
							c-1.9-1-8.4-0.2-11.5-0.4l-0.1,0.5c-2.1,0-4.1,0.1-6.7,0.3l0.2,0.4c-2.3,0.4-5.8-0.3-9.3-0.3c0.2-0.2,1.1-0.1,1.8,0
							c-4.3-1-9,0.7-12.8,0c-1,0.2-1.7,0.1-2.3,0c0.1,0,0.2,0,0.2,0c-0.1,0-0.2,0-0.4,0c-0.4-0.1-0.9-0.2-1.3-0.2
							c0.4,0.1,0.8,0.2,1.1,0.2c-0.7,0-1.9,0.1-3,0.2l-0.5-0.5c-0.1,0-0.2,0-0.3,0c-1.1-0.2-0.9,0.2-0.3,0.6
							c-0.6,0.1-1.1,0.2-1.5,0.3c-0.9-0.8-2.9,0.3-4.1-0.6c-0.7,0.4-5.5,0.3-6.1,1.2c0-0.1-0.4-0.2,0.2-0.2c-1.2-0.1-2.5-0.2-3.6,0
							l-0.5-0.6l-2.7,0.8c-1.6-0.4-2.3-0.6-0.7-1.1c-3.9,0.7-3.2,0.3-6.5,1l0.2-0.4c-1.2,0-3.1,0.5-3.8,0.2
							c-2.7-0.8-13.2-0.1-20-0.8c1.3,1.2-3.2-0.5-3.4,0.4c-0.4-0.3-1.3-0.4-0.2-0.7c-3.5,0.3-5.2-0.4-7.6,0.3
							c-0.4-0.3,0.7-0.4,0.4-0.6c-0.3,0.1-1.1,0.2-1.5,0.1c-0.4-0.2,0.5-0.2,1.1-0.4c-3.6,0-3.9,0.9-4.2,1.7c-1.8-0.4-2.7-0.3-4,0.2
							c-0.6-0.3-1.7-0.5,0.5-0.6c-1.2,0-7.6-0.4-7.7,0.3c-0.4-0.2-1.7,0-2.1,0c-1.5,0-2.3,0-3.1-0.1c-1,0-2,0-3.9,0l1.1,0.1
							c-0.3,0.3-0.7,0.4-1.2,0.4c0,1-0.2,2.1-0.1,3.9l-0.1-0.1c-0.1,0.7-0.1,1.3-0.1,1.7c0,0.4,0,0.7-0.1,1c0,0.5,0,0.8,0,1.1
							c0.1,0.5,0.1,1.1-0.2,3.6l0.5-0.3c1,0.5-0.6,4.4-0.2,7.3l0.3-1c0.4,1.6-1.4,4.4-1.5,6c-0.1,0.3-0.1-0.5-0.2-1
							c-0.6,4.2,0.6,0.5,0.8,3.6c-0.3,0.6-0.9-0.7-0.9,1.4c-0.3,1,1.1,6.1,0.5,8.9c0.3-0.6,0.5-1.3,0.7,0.2c0.1,2.2-1,6-0.2,8
							c-0.1,0.3-0.1,0.4-0.2,0.4c0.2,1.7,0.4,5.5,0.8,6.5c-1.7,1.6,0.8,10.5-0.7,10.5l0.1,5.2l-0.2-0.1c-0.1,3.3,0.3,4.5,0.6,5.7
							c-0.1,0.8-0.2,0.2-0.3,0.1c-0.3,4.9-0.2,5.3,0.5,9.4l-0.5,0.4c0.3,1.1-0.8,7-0.2,11.8c-0.1,0-0.2-0.1-0.2-0.5
							c0.6,5.4-1.4,12.8,0.4,14.8l0.4,3.5c0.1-4.6,0.8,0.7,1.1-1.2c0.1,1.8-0.5,4.6-0.6,2.4l0.1-0.3c-0.9-0.8-0.3,5.7-1,5.6
							c0,2.8,0,5.7-0.1,8.5c0,1.4-0.1,2.8-0.1,4.2c0,2-0.1,4.1-0.1,6.1c2.2,0,4.5,0.1,6.7,0.1c1.6,0,3.1,0,4.7,0.1l-1-0.7l2.9,0
							c0.8,0.2,1,0.6-1.1,0.5c1.1,0.4,3.5-0.3,3.6-0.5c4.1,0.3-1.6,0.9-0.3,0.9l1.7-0.1l-0.4-0.1c1.4-0.3,1.5-0.6,4-0.6
							c1.6,0.1,0.8,0.5,1.4,0.5c0,0.1,0.2,0.1,1,0l3.7,0.1l-1.5-0.6c1.6-0.3,3.5,0,1.8-0.6c2.5,1,13.8,0.4,15.3,0.7
							c2.3-0.4,4.6-0.4,7.4-0.4c-0.7-0.1-1.1-0.8,1.3-0.7c-0.9,1.3,4.4,0.6,6.4,1.5c-1.8-0.6,6.9-0.2,4.1-1.1c2,0.1,0.1,0.5,1.7,0.8
							c4.8-0.5,10.6,0.3,16.6,0.2c0.1-0.2-0.9-0.4,0.4-0.7l3.1,0.9c1.2-0.1,1.1-1,3.2-0.4c-0.3-0.1-0.8-0.4,0-0.4
							c11.7,0.9,23.8-0.7,35.7,0.9c-1.6-0.3-0.5-0.4,0.7-0.4c-0.8-0.1,0-0.4-0.1-0.7l5,0.7c0.9-0.7,5.3,0,5.8-0.7l-1.6,0.1
							c2.1-0.7-2.9-1.7-2.6-2.6c-2.3,0.8-6.2-1.3-10,0c-0.8-0.2,0.7-0.3,0.3-0.5c-1,0.4-2.1,0.5-4.3,0.3l0.2-0.1
							c-6.1,0.1-8.7-0.3-15.6-0.6l0.5,0.5c-1.5-0.1-1.8-0.2-2.5-0.3c-1.7,0.7,4.1,0,2.6,0.8c-2-1-10.4,0-11.7-1.1
							c-2.3,0,0.7,0.5-1.6,0.5l-0.6-0.3l-0.6,0.4c-1.5-0.1-2.2-0.4-2.3-0.7c0.4,0,1-0.1,1.4-0.1c-1.9-0.3-5.4,0.1-6.1,0l2.2,0.2
							c-6.2,0.3-13.8-0.1-19.7,0.5l0.5,0.2c-4.6,0.4-3.7-0.2-8.7-0.1l0.2-0.1c-1,0.2-2.3,0.3-3.7,0.3c1.3-0.3-2.4-0.5-0.7-0.8
							c-5,0.4-2.5,0.3-5.7,1.2l-0.8-0.4c-1.1,0.3-1.2,0.5-3.7,0.6c2.1-0.3-1.6-0.6,0.7-1c-5.3-0.8-7.8,0.8-10.2-0.4
							c-2.4,1,4.5,0.6,3.2,0.8c1.1,0.3-2,0.8-3.6,0.7c-1.7,0-2.9-1.3-7.1-1.3c0.4,0,0.4-0.1,0.9-0.1c-1.6-0.3-3.1,0.4-5-0.1
							c-1.1,0.6-2.5,0-2.8,0.8l3.9-0.2c-2.2,0.2-4.3,1.1-7.9,0.7c0.3-0.2,1.4-0.4,2.1-0.5c-1.1-0.2-2,0.2-3.1-0.1
							c0.3-0.8,4.7-0.2,7.1-0.8c-1.1-0.3-4.5,0.6-3.3-0.3c-1.7,1.1-4.2-0.1-7,0.7l0.2-0.5c-0.2,0-0.6,0.1-1,0.2c-0.1,0-0.2,0-0.3,0
							l-0.2,0c-0.1,0-0.2,0-0.3,0c0.3-0.2,0.4-0.4,1-0.6c-0.2,0-0.4,0.1-0.5,0.1c-0.1,0-0.1,0-0.2,0c-0.1,0-0.3,0-0.4,0
							c-0.2-0.1-0.4-0.2-0.5-0.3c0.1-0.3,0.1-0.5,0-0.7c0,0.4-0.1,0.7-0.1,0.8c0,0.1-0.2,0.2-0.3,0.4c-0.2,0.1-0.3,0.3-0.1,0.4
							c-0.2,0-0.3,0-0.4,0.1c-0.1-0.6-0.1-1.1,0-1.4c0-0.2,0.1-0.3,0.2-0.4c0-0.1,0.1-0.1,0.1-0.2c0,0,0,0,0.1-0.1l0.1-0.2
							c0.3-0.9,0.7-1.9,0.6-5c0.1,0.9-0.3,3.3-0.5,1.9c0.1-1.2,0.3-2.8,0.5-3.6c-0.1-4.3-0.5,0.7-0.8-1.2c0.6-1.4-0.2-2.1-0.4-4
							l0.5,0c0.3-4.8-1-1.3-0.6-5.7l0.7,1.8l-0.2-2.3l0.5,0.5c-0.4-2.5-0.3-3.2-0.1-5.7c-0.3,0.6-0.9-0.3-0.9-2.5
							c0.3-1.5,0.5,0.8,0.4-2.2c0.3,0.7,0.7,1.4,0.2,2.8c0.2,0.1,0.3,0.7,0.5,0.8c0.3-1.6,0.1-4,0.1-5.1c0,0.4,0,0.9-0.1,1.2
							l-0.7-4.4c0.2-0.7,0.3-0.1,0.5,0.4c-0.1-0.9-0.3-1.5-0.3-2.8c0.4,0.3,0.8,0.3,1,2.1l-0.4-4.2c0.2-0.3,0.5-2.2,0.6-1.6
							c0.2-2.3-0.8-5.7-0.5-8.8c-0.1-0.2-0.1-0.5-0.2-1.1c0.1-2.9,0.6-5.5,0-8.9l0.7-2c-0.2-2.7-0.9,2.6-1.2-1.8
							c-0.2-3.2,0.6-1.2,0.8-2.3c-0.4-1.6-1.1-4.3-0.5-7.2C113.4,422.4,113.2,423.2,113.3,424.1z M113,390.8
							c0.1,0.6,0.4,1.9,0.1,2.4C112.6,392.5,112.8,391.9,113,390.8z M132.6,363.1c-0.5,0.2-1.2,0.1-2.1-0.1
							C131.2,363,131.9,363,132.6,363.1z M247.4,390.5C247.4,390.4,247.4,390.4,247.4,390.5C247.5,389,247.5,389.5,247.4,390.5z
							 M247.2,393.5c0.1,0.3,0.1,0.3,0.2,0.2c-0.1-0.2-0.1-0.9-0.1-1.6C247.1,392.2,247.1,392.6,247.2,393.5z M131.5,498.2l-0.6-0.1
							C132.2,498,131.8,498.1,131.5,498.2z"/>
						<path class="st1" d="M126.9,363.8c-0.2-0.1-0.2-0.2-0.3-0.3C126.4,363.6,126.4,363.7,126.9,363.8z"/>
						<path class="st1" d="M113.6,444.7l0,0.1c0,0.1,0.1,0.1,0.1,0.1L113.6,444.7z"/>
						<path class="st1" d="M230.2,364c-0.6-0.1-1-0.2-1.2-0.2C229,363.9,229.3,364,230.2,364z"/>
						<path class="st1" d="M248,409.3l-0.1-1.9c0,0.9-0.1,1.3-0.2,1.7C247.8,409,248,408.7,248,409.3z"/>
						<path class="st1" d="M245,425.9c0.1,0.3,0,0.6,0.1,0.9l0.2-0.1C245.3,425.5,245.1,424.6,245,425.9z"/>
						<path class="st1" d="M246.4,411c-0.4,0.2-0.3,1.4-0.2,2.7c0-0.1,0-0.2,0-0.2C246.8,413.9,246.6,412.5,246.4,411z"/>
						<path class="st1" d="M246.2,414.1c0,0.4,0,0.8,0,1.2C246.4,415.4,246.3,414.8,246.2,414.1z"/>
						<path class="st1" d="M247.4,397.2c-0.1,0.6,0.5,0.4,0.4,0.8C248.3,398.7,247.2,393.8,247.4,397.2z"/>
						<polygon class="st1" points="245,412.1 245.5,411.7 245.1,410.9 						"/>
						<path class="st1" d="M245.4,401.6l-0.1,2.1c0.1,0,0.1,0.2,0.2,0.6C245.5,403,245.6,401.5,245.4,401.6z"/>
						<path class="st1" d="M245.4,404.3c0,0.7,0,1.3,0.1,1.7C245.5,405.6,245.5,404.8,245.4,404.3z"/>
						<polygon class="st1" points="244.9,409.2 245,408.6 245,407.1 						"/>
						<path class="st1" d="M245.5,378.6l-0.1-2.3c-0.2-0.2-0.3,0.4-0.2,1.3C245.3,378,245.3,378.9,245.5,378.6z"/>
						<path class="st1" d="M244.1,385.6c0.1-0.6,0.2-0.7,0.4-1l-0.6-0.1L244.1,385.6z"/>
						<path class="st1" d="M244,378.8c-0.2-0.2-0.5-3.4-0.5-0.4C243.7,378.6,243.9,381,244,378.8z"/>
						<polygon class="st1" points="226.6,362.3 227.2,362.3 227.1,361.3 						"/>
						<path class="st1" d="M195.6,364.8c2.8,0.2,0.7-0.6,3.2-0.3c0.6-0.2-2-0.2-1.4-0.5C195.7,364.2,194.8,364.1,195.6,364.8z"/>
						<path class="st1" d="M197.3,364c0.3,0,0.6-0.1,0.9-0.2C197.7,363.9,197.5,363.9,197.3,364z"/>
						<polygon class="st1" points="240.1,498.8 241.9,499 240.8,498.6 						"/>
						<path class="st1" d="M243.6,498l0.4,0.6l1.1-0.6C244.6,498.1,243.9,498.2,243.6,498z"/>
						<path class="st1" d="M114.3,385.9l-0.2-0.1c-0.2,0.3-0.2,0.7-0.2,1.5L114.3,385.9z"/>
						<polygon class="st1" points="113.8,410 113.8,409.6 113.2,410.4 						"/>
						<path class="st1" d="M114.6,430.3c0-0.8-0.1-1.8-0.1-2.6C114.6,429.4,113.8,430.5,114.6,430.3z"/>
					</g>
				</g>
			</g>
		</g>
	</g>
	<text transform="matrix(0.9623 0 0 1 129.4893 456.4214)" class="st2 st3 st4 st5">想</text>
</g>
</svg>
